<svg xmlns="http://www.w3.org/2000/svg" viewBox="0 0 128 128">
  <!-- Window background -->
  <rect x="8" y="8" width="112" height="112" rx="12" fill="#1e1e2e"/>

  <!-- Title bar -->
  <rect x="8" y="8" width="112" height="20" rx="12" fill="#2a2a3e"/>
  <rect x="8" y="18" width="112" height="10" fill="#2a2a3e"/>

  <!-- Window buttons -->
  <circle cx="22" cy="18" r="4" fill="#ff5f57"/>
  <circle cx="34" cy="18" r="4" fill="#febc2e"/>
  <circle cx="46" cy="18" width="14" height="14" r="4" fill="#28c840"/>

  <!-- Narrower Pixel G - 12px pixels, tighter shape -->
  <g fill="#F7A41D">
    <!-- Row 1:  ███ -->
    <rect x="46" y="38" width="12" height="12"/>
    <rect x="58" y="38" width="12" height="12"/>
    <rect x="70" y="38" width="12" height="12"/>
    <!-- Row 2: █   █ -->
    <rect x="34" y="50" width="12" height="12"/>
    <rect x="82" y="50" width="12" height="12"/>
    <!-- Row 3: █     -->
    <rect x="34" y="62" width="12" height="12"/>
    <!-- Row 4: █  ██ -->
    <rect x="34" y="74" width="12" height="12"/>
    <!-- <rect x="58" y="74" width="12" height="12"/> -->
    <rect x="70" y="74" width="12" height="12"/>
    <rect x="82" y="74" width="12" height="12"/>
    <!-- Row 5: █   █ -->
    <rect x="34" y="86" width="12" height="12"/>
    <rect x="82" y="86" width="12" height="12"/>
    <!-- Row 6:  ███ -->
    <rect x="46" y="98" width="12" height="12"/>
    <rect x="58" y="98" width="12" height="12"/>
    <rect x="70" y="98" width="12" height="12"/>
  </g>
</svg>
